# xmcd
#
# Track frame offsets:
#	150
#	10966
#	21179
#	32327
#	45198
#	58198
#	71083
#	81920
#	94136
#	109091
#
# Disc length: 1635 seconds
#
# Revision: 1
# Processed by: cddbd v1.5.2PL0 Copyright (c) Steve Scherf et al.
# Submitted via: audiograbber 1.83.01
#
DISCID=7706610a
DTITLE=Lynn and George - Summer In The Country
DYEAR=2014
DGENRE=Country
TTITLE0=Love,s Gonna Live Here
TTITLE1=It Must Be Love
TTITLE2=Luosiana Woman,Mssissippi Mna
TTITLE3=Love Of The Common People
TTITLE4=Summer In The Country
TTITLE5=The Price I Pay
TTITLE6=Act Naturally
TTITLE7=Rollin In My Sweet Baby,s Arms
TTITLE8=Waitin
TTITLE9=Rawhide
EXTD=
EXTT0=
EXTT1=
EXTT2=
EXTT3=
EXTT4=
EXTT5=
EXTT6=
EXTT7=
EXTT8=
EXTT9=
PLAYORDER=
